<?xml version="1.0" encoding="UTF-8" standalone="no"?>
<svg width="512px" height="512px" viewBox="0 0 512 512" version="1.1" xmlns="http://www.w3.org/2000/svg" xmlns:xlink="http://www.w3.org/1999/xlink" xmlns:sketch="http://www.bohemiancoding.com/sketch/ns">
    <title>chat</title>
    <description>Created with Sketch (http://www.bohemiancoding.com/sketch)</description>
    <defs></defs>
    <g id="Page-1" stroke="none" stroke-width="1" fill="none" fill-rule="evenodd" sketch:type="MSPage">
        <path d="M256,512 C397.384903,512 512,397.384903 512,256 C512,114.615097 397.384903,0 256,0 C114.615097,0 0,114.615097 0,256 C0,397.384903 114.615097,512 256,512 Z M351,219.172602 C351,160.030556 290.311056,112 215.5,112 C140.688944,112 80,160.038167 80,219.172602 C80,245.406372 92.0068056,269.433066 111.789806,288.056227 L105.481528,320.56114 C100.129278,349.572783 109.930444,354.603396 132.807361,340.242176 L163.821806,318.262736 C179.66025,323.498835 197.230083,326.345203 215.5,326.345203 C290.356222,326.337592 351,278.375532 351,219.172602 Z M401.697564,349.829426 C415.651656,336.67862 424,319.755168 424,301.304327 C424,271.871571 402.782548,246.410023 371.724899,234 C364.250569,288.695744 315.599615,333.119808 252,345.90404 C269.329595,364.614536 297.200105,376.84891 328.732434,376.84891 C341.616611,376.84891 353.882951,374.7793 365.094445,371.121207 L386.884528,386.555457 C403.053794,396.651488 409.947959,393.077401 406.180655,372.717327 L401.697564,349.829426 Z" id="chat" fill="#000000" sketch:type="MSShapeGroup"></path>
    </g>
</svg>