<?xml version="1.0" encoding="UTF-8" standalone="no"?>
<svg width="512px" height="512px" viewBox="0 0 512 512" version="1.1" xmlns="http://www.w3.org/2000/svg" xmlns:xlink="http://www.w3.org/1999/xlink" xmlns:sketch="http://www.bohemiancoding.com/sketch/ns">
    <title>mail-2</title>
    <description>Created with Sketch (http://www.bohemiancoding.com/sketch)</description>
    <defs></defs>
    <g id="Page-1" stroke="none" stroke-width="1" fill="none" fill-rule="evenodd" sketch:type="MSPage">
        <g id="email" sketch:type="MSLayerGroup" fill="#231F20">
            <path d="M256,0 C114.61632,0 0,114.61632 0,256 C0,397.38368 114.61632,512 256,512 C397.38368,512 512,397.38368 512,256 C512,114.61632 397.38368,0 256,0 L256,0 Z M98.24256,373.50912 L98.24256,372.992 L224.74752,254.4896 L255.99488,283.14624 L286.54592,255.1296 L412.91776,373.50912 L98.24256,373.50912 L98.24256,373.50912 Z M413.7472,362.80832 L292.736,249.45152 L413.7472,138.48576 L255.99488,256 L98.24256,138.48576 L218.55744,248.8064 L98.24256,361.51808 L98.24256,138.48576 L413.7472,138.48576 L413.7472,362.80832 L413.7472,362.80832 Z" id="Shape" sketch:type="MSShapeGroup"></path>
        </g>
    </g>
</svg>