<?xml version="1.0" encoding="UTF-8" standalone="no"?>
<svg width="512px" height="512px" viewBox="0 0 512 512" version="1.1" xmlns="http://www.w3.org/2000/svg" xmlns:xlink="http://www.w3.org/1999/xlink" xmlns:sketch="http://www.bohemiancoding.com/sketch/ns">
    <title>linkedin</title>
    <description>Created with Sketch (http://www.bohemiancoding.com/sketch)</description>
    <defs></defs>
    <g id="Page-1" stroke="none" stroke-width="1" fill="none" fill-rule="evenodd" sketch:type="MSPage">
        <path d="M255.664081,-0.232 C114.256081,-0.232 -0.335918747,114.392 -0.335918747,255.768 C-0.335918747,397.224 114.256081,511.768 255.664081,511.768 C397.040081,511.768 511.664081,397.224 511.664081,255.768 C511.664081,114.424 397.040081,-0.232 255.664081,-0.232 L255.664081,-0.232 Z M208.464081,230.104 L175.472081,230.104 C172.528081,230.104 169.968081,232.552 169.968081,235.608 L169.968081,345.672 C169.968081,348.664 172.528081,351.224 175.472081,351.224 L208.464081,351.224 C211.408081,351.224 214.000081,348.664 214.000081,345.672 L214.000081,235.608 C213.984081,232.632 211.392081,230.104 208.464081,230.104 L208.464081,230.104 Z M298.544081,226.488 C288.208081,226.488 279.104081,229 271.392081,234.152 C269.984081,235.032 269.136081,235.72 269.056081,236.216 C269.056081,232.072 266.784081,229.944 263.008081,229.944 L232.672081,229.944 C229.424081,229.944 225.008081,231.752 225.008081,234.84 L225.008081,345.56 C225.008081,348.568 229.344081,351.064 232.672081,351.064 L263.984081,351.064 C266.736081,351.064 268.976081,348.584 268.976081,345.56 L268.976081,285.56 C268.976081,269.56 275.456081,261.496 288.640081,261.496 C299.824081,261.496 302.080081,266.312 302.080081,277.912 L302.080081,345.56 C302.080081,348.568 305.328081,351.064 308.576081,351.064 L340.576081,351.064 C343.488081,351.064 346.080081,348.584 346.080081,345.56 L346.080081,270.712 C346.016081,241.72 328.080081,226.488 298.544081,226.488 L298.544081,226.488 Z M191.088081,217.688 C197.120081,217.688 202.096081,215.624 206.096081,211.352 C210.432081,207.128 212.432081,202.344 212.432081,196.344 C212.432081,184.68 202.800081,175 191.120081,175 C179.456081,175 170.000081,184.664 170.000081,196.344 C169.968081,208.104 179.392081,217.688 191.088081,217.688 L191.088081,217.688 Z M387.696081,338.36 C387.696081,365.672 365.536081,387.912 338.192081,387.912 L173.136081,387.912 C145.792081,387.912 123.600081,365.672 123.600081,338.36 L123.600081,173.32 C123.600081,146.008 145.792081,123.736 173.136081,123.736 L338.192081,123.736 C365.536081,123.736 387.696081,146.008 387.696081,173.32 L387.696081,338.36 L387.696081,338.36 Z" id="linkedin" fill="#000000" sketch:type="MSShapeGroup"></path>
    </g>
</svg>
