<?xml version="1.0" encoding="UTF-8" standalone="no"?>
<!DOCTYPE svg PUBLIC "-//W3C//DTD SVG 1.1//EN" "http://www.w3.org/Graphics/SVG/1.1/DTD/svg11.dtd">
<svg xmlns="http://www.w3.org/2000/svg" xmlns:xl="http://www.w3.org/1999/xlink" xmlns:dc="http://purl.org/dc/elements/1.1/" version="1.1" viewBox="-141.7928 -133.99512 500 500" width="500" height="500">
  <defs/>
  <g id="Canvas_1" stroke-opacity="1" stroke="none" fill="none" fill-opacity="1" stroke-dasharray="none">
    <title>Canvas 1</title>
    <g id="Canvas_1_Layer_1">
      <title>Layer 1</title>
      <g id="Graphic_8">
        <path d="M 284.9837 -60.77162 C 382.6152 36.85938 382.6152 195.15038 284.9837 292.78138 C 187.3527 390.4129 29.0617 390.4129 -68.5693 292.78138 C -166.2008 195.15038 -166.2008 36.85938 -68.5693 -60.77162 C 29.0617 -158.40312 187.3527 -158.40312 284.9837 -60.77162" fill="black"/>
      </g>
      <g id="Group_11">
        <g id="Graphic_10">
          <path d="M 247.24332 146.9828 C 242.97393 168.94706 209.00508 192.98477 169.99182 197.64335 C 149.64808 200.07077 129.61805 202.30193 108.2594 201.32223 C 73.32931 199.72184 45.767044 192.98477 45.767044 192.98477 C 45.767044 196.38518 45.97674 199.62287 46.39613 202.65086 C 50.937275 237.12298 80.57803 239.18805 108.6553 240.15097 C 136.99427 241.1206 162.22808 233.16394 162.22808 233.16394 L 163.3923 258.7836 C 163.3923 258.7836 143.5703 269.4277 108.2594 271.3854 C 88.78799 272.45568 64.61104 270.89555 36.45157 263.44217 C -24.62157 247.27723 -35.124754 182.17627 -36.731853 116.12079 C -37.2217 96.50847 -36.91974 78.01508 -36.91974 62.54801 C -36.91974 -4.9971465 7.335891 -24.795674 7.335891 -24.795674 C 29.650755 -35.04387 67.94099 -39.353514 107.74774 -39.67896 L 108.72576 -39.67896 C 148.5325 -39.353514 186.8479 -35.04387 209.1611 -24.795674 C 209.1611 -24.795674 253.41505 -4.9971465 253.41505 62.54801 C 253.41505 62.54801 253.97032 112.3832 247.24332 146.9828" fill="white"/>
        </g>
        <g id="Graphic_9">
          <path d="M 201.2145 67.788025 L 201.2145 149.57396 L 168.8125 149.57396 L 168.8125 70.191964 C 168.8125 53.458333 161.77179 44.96486 147.6887 44.96486 C 132.11761 44.96486 124.31362 55.04027 124.31362 74.96294 L 124.31362 118.41334 L 92.10285 118.41334 L 92.10285 74.96294 C 92.10285 55.04027 84.29717 44.96486 68.72609 44.96486 C 54.643 44.96486 47.60229 53.458333 47.60229 70.191964 L 47.60229 149.57396 L 15.200279 149.57396 L 15.200279 67.788025 C 15.200279 51.07285 19.45624 37.78995 28.00507 27.962822 C 36.820633 18.135693 48.36558 13.09799 62.69695 13.09799 C 79.27792 13.09799 91.83444 19.471029 100.13667 32.218784 L 108.20739 45.74828 L 116.2798 32.218784 C 124.58035 19.471029 137.13686 13.09799 153.71951 13.09799 C 168.0492 13.09799 179.59415 18.135693 188.4114 27.962822 C 196.95855 37.78995 201.2145 51.07285 201.2145 67.788025" fill="black"/>
        </g>
      </g>
    </g>
  </g>
</svg>
