<?xml version="1.0" encoding="UTF-8" standalone="no"?>
<svg width="512px" height="512px" viewBox="0 0 512 512" version="1.1" xmlns="http://www.w3.org/2000/svg" xmlns:xlink="http://www.w3.org/1999/xlink" xmlns:sketch="http://www.bohemiancoding.com/sketch/ns">
    <title>sliderdeck</title>
    <description>Created with Sketch (http://www.bohemiancoding.com/sketch)</description>
    <defs></defs>
    <g id="Page-1" stroke="none" stroke-width="1" fill="none" fill-rule="evenodd" sketch:type="MSPage">
        <path d="M256,512 C397.384903,512 512,397.384903 512,256 C512,114.615097 397.384903,0 256,0 C114.615097,0 0,114.615097 0,256 C0,397.384903 114.615097,512 256,512 Z M157.00292,151 C136.014487,151 119,168.007298 119,188.999 L119,323.001 C119,343.987268 136.020832,361 157.00292,361 L355.99708,361 C376.985513,361 394,343.992702 394,323.001 L394,188.999 C394,168.012732 376.979168,151 355.99708,151 L157.00292,151 Z M213.327471,218.914007 C201.732729,218.914007 192.333333,228.319857 192.333333,239.90541 L192.333333,272.040251 C192.333333,283.633483 201.743977,293.031654 213.327471,293.031654 L299.672529,293.031654 C311.267271,293.031654 320.666667,283.625804 320.666667,272.040251 L320.666667,239.90541 C320.666667,228.312179 311.256023,218.914007 299.672529,218.914007 L213.327471,218.914007 Z M210.470588,255.972831 L247.529412,237.639497 L247.529412,274.306164 L210.470588,255.972831 Z M264.279134,274.502243 L264.279134,237.443419 L300.945801,255.972831 L264.279134,274.502243 Z" id="sliderdeck" fill="#000000" sketch:type="MSShapeGroup"></path>
    </g>
</svg>