<?xml version="1.0" encoding="UTF-8" standalone="no"?>
<svg width="512px" height="512px" viewBox="0 0 512 512" version="1.1" xmlns="http://www.w3.org/2000/svg" xmlns:xlink="http://www.w3.org/1999/xlink" xmlns:sketch="http://www.bohemiancoding.com/sketch/ns">
    <title>twitter</title>
    <description>Created with Sketch (http://www.bohemiancoding.com/sketch)</description>
    <defs></defs>
    <g id="Page-1" stroke="none" stroke-width="1" fill="none" fill-rule="evenodd" sketch:type="MSPage">
        <path d="M255.984,0 C114.608,0 0,114.624 0,256 C0,397.456 114.608,512 255.984,512 C397.44,512 511.984,397.456 511.984,256 C511.984,114.656 397.328,0 255.984,0 L255.984,0 Z M416.656,178.224 C409.456,189.888 399.664,200.56 386.688,210.048 L386.688,215.6 C387.68,266.496 362.352,332.592 303.456,369.936 C273.968,388.736 241.12,398.144 204.448,398.144 C174.784,398.144 147.008,391.184 120.736,377.808 C113.696,374.144 108.672,371.36 106.288,369.472 C104.624,368.128 103.888,366.624 103.888,365.024 C103.888,362.096 106.288,359.68 109.248,359.68 C110.768,359.68 113.264,359.92 116.624,360.016 C119.968,360.352 122.48,360.384 124.16,360.384 C147.024,360.384 167.856,354.672 187.024,342.72 C164.016,337.376 145.424,320.336 138.048,297.728 C137.888,296.832 137.712,296.192 137.712,296.016 C137.712,293.328 140.048,290.88 142.752,290.88 C143.248,290.88 144.096,291.12 145.088,291.216 C146.08,291.472 146.752,291.552 147.088,291.552 C127.152,279.232 114.432,257.36 114.432,234.112 C114.432,230.736 117.44,228.048 120.768,228.048 C121.888,228.048 123.776,228.736 126.592,229.76 C129.6,231.104 131.088,232.096 131.6,232.096 C121.264,219.76 116.176,205.472 116.176,189.136 C116.176,177.664 119.52,163.552 125.2,155.136 C126.336,153.376 127.664,152.384 129.536,152.384 C131.2,152.384 132.88,153.136 133.872,154.48 C142.352,163.904 148.416,170.144 152.224,173.632 C179.696,198.56 214.88,213.664 251.52,216.8 C251.04,214.464 250.864,211.808 250.864,208.544 C250.864,171.2 281.2,140.88 318.528,140.88 C336.864,140.88 352.528,147.216 365.728,159.888 C376.256,157.584 388.064,152.88 400.736,146.224 C401.648,145.888 402.448,145.328 403.44,145.328 C406.336,145.328 408.864,147.824 408.864,150.672 C408.864,156.048 400.736,169.68 395.616,175.664 C397.2,175.248 403.28,172.672 407.92,171.216 C410.256,170.256 411.584,170.064 411.92,170.064 C414.928,170.064 417.296,172.56 417.296,175.44 C417.552,176.48 417.2,177.456 416.656,178.224 L416.656,178.224 Z" id="twitter" fill="#000000" sketch:type="MSShapeGroup"></path>
    </g>
</svg>
